<?xml version="1.0" encoding="UTF-8"?>
<svg width="1280" height="720" viewBox="0 0 1280 720" xmlns="http://www.w3.org/2000/svg">
  <defs>
    <linearGradient id="bg" x1="0%" y1="0%" x2="100%" y2="100%">
      <stop offset="0%" style="stop-color:#1e2f3c"/>
      <stop offset="100%" style="stop-color:#0f1a24"/>
    </linearGradient>
    <linearGradient id="glass" x1="0%" y1="0%" x2="0%" y2="100%">
      <stop offset="0%" style="stop-color:#F8F9FA;stop-opacity:0.15"/>
      <stop offset="100%" style="stop-color:#F8F9FA;stop-opacity:0.05"/>
    </linearGradient>
    <filter id="glow"><feGaussianBlur stdDeviation="8" result="blur"/><feMerge><feMergeNode in="blur"/><feMergeNode in="SourceGraphic"/></feMerge></filter>
  </defs>
  <rect width="1280" height="720" fill="url(#bg)"/>
  <g opacity="0.5" fill="#F8F9FA">
    <circle cx="100" cy="80" r="4"/><circle cx="300" cy="120" r="3"/><circle cx="500" cy="60" r="5"/>
    <circle cx="800" cy="100" r="3"/><circle cx="1000" cy="70" r="4"/><circle cx="1180" cy="110" r="3"/>
  </g>
  <rect x="60" y="100" width="500" height="520" rx="28" fill="url(#glass)" stroke="rgba(255,255,255,0.1)"/>
  <circle cx="310" cy="240" r="80" fill="#1e2f3c" stroke="#00FFFF" stroke-width="4" filter="url(#glow)"/>
  <text x="310" y="255" font-family="Inter,Arial" font-size="32" font-weight="700" fill="#00FFFF" text-anchor="middle">eSIM</text>
  <text x="310" y="285" font-family="Inter,Arial" font-size="14" fill="#F8F9FA" text-anchor="middle">MYANMAR</text>
  <text x="310" y="380" font-family="Inter,Arial" font-size="42" font-weight="800" fill="#F8F9FA" text-anchor="middle">Merry</text>
  <text x="310" y="435" font-family="Inter,Arial" font-size="42" font-weight="800" fill="#F8F9FA" text-anchor="middle">Christmas</text>
  <text x="310" y="500" font-family="Inter,Arial" font-size="36" font-weight="600" fill="#00FFFF" text-anchor="middle" filter="url(#glow)">2025</text>
  <rect x="160" y="540" width="300" height="50" rx="25" fill="#00FFFF" filter="url(#glow)"/>
  <text x="310" y="573" font-family="Inter,Arial" font-size="18" font-weight="700" fill="#1e2f3c" text-anchor="middle">Watch Now</text>
  <g transform="translate(700, 150)">
    <rect x="0" y="0" width="280" height="420" rx="36" fill="#0f1a24" stroke="#2a3f4f" stroke-width="2"/>
    <rect x="10" y="10" width="260" height="400" rx="28" fill="#1e2f3c"/>
    <rect x="20" y="50" width="240" height="350" rx="16" fill="url(#glass)" stroke="rgba(255,255,255,0.1)"/>
    <rect x="70" y="100" width="140" height="140" rx="8" fill="#F8F9FA"/>
    <rect x="85" y="115" width="110" height="110" fill="#1e2f3c"/>
    <text x="140" y="290" font-family="Inter,Arial" font-size="16" font-weight="600" fill="#F8F9FA" text-anchor="middle">Premium 5G</text>
    <text x="140" y="315" font-family="Inter,Arial" font-size="12" fill="#9CA3AF" text-anchor="middle">Unlimited Data</text>
    <rect x="90" y="340" width="100" height="28" rx="14" fill="rgba(0,255,255,0.15)"/>
    <text x="140" y="360" font-family="Inter,Arial" font-size="12" font-weight="600" fill="#00FFFF" text-anchor="middle">ACTIVE</text>
  </g>
  <text x="640" y="680" font-family="Inter,Arial" font-size="14" fill="#6B7280" text-anchor="middle">esim.com.mm - Enterprise eSIM Platform</text>
</svg>
