<?xml version="1.0" encoding="UTF-8"?>
<svg width="1080" height="1080" viewBox="0 0 1080 1080" xmlns="http://www.w3.org/2000/svg">
  <defs>
    <linearGradient id="bg" x1="0%" y1="0%" x2="100%" y2="100%">
      <stop offset="0%" style="stop-color:#1e2f3c"/>
      <stop offset="100%" style="stop-color:#0f1a24"/>
    </linearGradient>
    <linearGradient id="glass" x1="0%" y1="0%" x2="0%" y2="100%">
      <stop offset="0%" style="stop-color:#F8F9FA;stop-opacity:0.15"/>
      <stop offset="100%" style="stop-color:#F8F9FA;stop-opacity:0.05"/>
    </linearGradient>
    <filter id="glow"><feGaussianBlur stdDeviation="8" result="blur"/><feMerge><feMergeNode in="blur"/><feMergeNode in="SourceGraphic"/></feMerge></filter>
  </defs>
  <rect width="1080" height="1080" fill="url(#bg)"/>
  <g opacity="0.5" fill="#F8F9FA">
    <circle cx="100" cy="100" r="4"/><circle cx="250" cy="150" r="3"/><circle cx="400" cy="80" r="5"/>
    <circle cx="600" cy="120" r="3"/><circle cx="800" cy="90" r="4"/><circle cx="950" cy="140" r="3"/>
    <circle cx="150" cy="950" r="3"/><circle cx="900" cy="980" r="4"/>
  </g>
  <rect x="90" y="200" width="900" height="680" rx="32" fill="url(#glass)" stroke="rgba(255,255,255,0.1)"/>
  <circle cx="540" cy="350" r="100" fill="#1e2f3c" stroke="#00FFFF" stroke-width="5" filter="url(#glow)"/>
  <text x="540" y="365" font-family="Inter,Arial" font-size="40" font-weight="700" fill="#00FFFF" text-anchor="middle">eSIM</text>
  <text x="540" y="400" font-family="Inter,Arial" font-size="16" fill="#F8F9FA" text-anchor="middle">MYANMAR</text>
  <text x="540" y="540" font-family="Inter,Arial" font-size="56" font-weight="800" fill="#F8F9FA" text-anchor="middle">Merry</text>
  <text x="540" y="610" font-family="Inter,Arial" font-size="56" font-weight="800" fill="#F8F9FA" text-anchor="middle">Christmas</text>
  <text x="540" y="690" font-family="Inter,Arial" font-size="48" font-weight="600" fill="#00FFFF" text-anchor="middle" filter="url(#glow)">2025</text>
  <rect x="340" y="750" width="400" height="60" rx="30" fill="#00FFFF" filter="url(#glow)"/>
  <text x="540" y="790" font-family="Inter,Arial" font-size="22" font-weight="700" fill="#1e2f3c" text-anchor="middle">Get Started Today</text>
  <text x="540" y="1020" font-family="Inter,Arial" font-size="18" fill="#6B7280" text-anchor="middle">esim.com.mm</text>
</svg>
