<?xml version="1.0" encoding="UTF-8"?>
<svg width="1200" height="630" viewBox="0 0 1200 630" xmlns="http://www.w3.org/2000/svg">
  <defs>
    <linearGradient id="bg" x1="0%" y1="0%" x2="100%" y2="100%">
      <stop offset="0%" style="stop-color:#1e2f3c"/>
      <stop offset="100%" style="stop-color:#0f1a24"/>
    </linearGradient>
    <linearGradient id="glass" x1="0%" y1="0%" x2="0%" y2="100%">
      <stop offset="0%" style="stop-color:#F8F9FA;stop-opacity:0.12"/>
      <stop offset="100%" style="stop-color:#F8F9FA;stop-opacity:0.04"/>
    </linearGradient>
    <filter id="glow"><feGaussianBlur stdDeviation="8" result="blur"/><feMerge><feMergeNode in="blur"/><feMergeNode in="SourceGraphic"/></feMerge></filter>
  </defs>
  <rect width="1200" height="630" fill="url(#bg)"/>
  <g opacity="0.5" fill="#F8F9FA">
    <circle cx="100" cy="80" r="3"/><circle cx="250" cy="120" r="2"/><circle cx="400" cy="60" r="4"/>
    <circle cx="600" cy="100" r="2"/><circle cx="800" cy="70" r="3"/><circle cx="1000" cy="110" r="2"/>
    <circle cx="1100" cy="50" r="4"/><circle cx="150" cy="550" r="2"/><circle cx="1050" cy="580" r="3"/>
  </g>
  <rect x="50" y="100" width="520" height="430" rx="24" fill="url(#glass)" stroke="rgba(255,255,255,0.1)"/>
  <circle cx="310" cy="220" r="70" fill="#1e2f3c" stroke="#00FFFF" stroke-width="3" filter="url(#glow)"/>
  <text x="310" y="230" font-family="Inter,Arial" font-size="28" font-weight="700" fill="#00FFFF" text-anchor="middle">eSIM</text>
  <text x="310" y="255" font-family="Inter,Arial" font-size="12" fill="#F8F9FA" text-anchor="middle">MYANMAR</text>
  <text x="310" y="340" font-family="Inter,Arial" font-size="38" font-weight="800" fill="#F8F9FA" text-anchor="middle">Merry Christmas</text>
  <text x="310" y="385" font-family="Inter,Arial" font-size="28" font-weight="600" fill="#00FFFF" text-anchor="middle" filter="url(#glow)">2025</text>
  <text x="310" y="440" font-family="Inter,Arial" font-size="14" fill="#9CA3AF" text-anchor="middle">Enterprise eSIM Management Platform</text>
  <rect x="185" y="470" width="250" height="44" rx="22" fill="#00FFFF" filter="url(#glow)"/>
  <text x="310" y="498" font-family="Inter,Arial" font-size="14" font-weight="700" fill="#1e2f3c" text-anchor="middle">Get Started</text>
  <g transform="translate(680,80)">
    <rect width="260" height="470" rx="32" fill="#0f1a24" stroke="#2a3f4f" stroke-width="2"/>
    <rect x="10" y="10" width="240" height="450" rx="24" fill="#1e2f3c"/>
    <rect x="20" y="60" width="220" height="380" rx="16" fill="url(#glass)"/>
    <rect x="60" y="100" width="140" height="140" rx="8" fill="#F8F9FA"/>
    <rect x="75" y="115" width="110" height="110" fill="#1e2f3c"/>
    <g fill="#F8F9FA"><rect x="85" y="125" width="20" height="20"/><rect x="115" y="125" width="20" height="20"/><rect x="145" y="125" width="20" height="20"/><rect x="85" y="155" width="20" height="20"/><rect x="145" y="155" width="20" height="20"/><rect x="85" y="185" width="20" height="20"/><rect x="115" y="185" width="20" height="20"/><rect x="145" y="185" width="20" height="20"/></g>
    <text x="130" y="280" font-family="Inter,Arial" font-size="14" font-weight="600" fill="#F8F9FA" text-anchor="middle">Premium 5G</text>
    <text x="130" y="300" font-family="Inter,Arial" font-size="11" fill="#9CA3AF" text-anchor="middle">Unlimited Data</text>
    <rect x="80" y="320" width="100" height="24" rx="12" fill="rgba(0,255,255,0.15)"/>
    <text x="130" y="337" font-family="Inter,Arial" font-size="11" font-weight="600" fill="#00FFFF" text-anchor="middle">ACTIVE</text>
  </g>
  <g transform="translate(1050,50)"><ellipse rx="20" ry="10" fill="#2d5a3d" transform="rotate(-30)"/><ellipse cx="15" cy="8" rx="20" ry="10" fill="#2d5a3d" transform="rotate(30)"/><circle cx="8" cy="4" r="6" fill="#c41e3a"/><circle cx="14" cy="10" r="5" fill="#c41e3a"/></g>
  <text x="600" y="600" font-family="Inter,Arial" font-size="11" fill="#6B7280" text-anchor="middle">ESIM MYANMAR COMPANY LIMITED - esim.com.mm</text>
</svg>
