<?xml version="1.0" encoding="UTF-8"?>
<svg width="1584" height="396" viewBox="0 0 1584 396" xmlns="http://www.w3.org/2000/svg">
  <defs>
    <linearGradient id="bg" x1="0%" y1="0%" x2="100%" y2="100%">
      <stop offset="0%" style="stop-color:#1e2f3c"/><stop offset="100%" style="stop-color:#0f1a24"/>
    </linearGradient>
    <linearGradient id="glass" x1="0%" y1="0%" x2="0%" y2="100%">
      <stop offset="0%" style="stop-color:#F8F9FA;stop-opacity:0.1"/><stop offset="100%" style="stop-color:#F8F9FA;stop-opacity:0.03"/>
    </linearGradient>
    <filter id="glow"><feGaussianBlur stdDeviation="5"/><feMerge><feMergeNode/><feMergeNode in="SourceGraphic"/></feMerge></filter>
  </defs>
  <rect width="1584" height="396" fill="url(#bg)"/>
  <g opacity="0.4" fill="#F8F9FA">
    <circle cx="100" cy="50" r="3"/><circle cx="300" cy="80" r="2"/><circle cx="600" cy="40" r="3"/>
    <circle cx="900" cy="60" r="2"/><circle cx="1200" cy="50" r="3"/><circle cx="1500" cy="70" r="2"/>
    <circle cx="150" cy="340" r="2"/><circle cx="1450" cy="350" r="3"/>
  </g>
  <circle cx="200" cy="198" r="80" fill="#1e2f3c" stroke="#00FFFF" stroke-width="3" filter="url(#glow)"/>
  <text x="200" y="210" font-family="Inter,Arial" font-size="32" font-weight="700" fill="#00FFFF" text-anchor="middle">eSIM</text>
  <text x="200" y="240" font-family="Inter,Arial" font-size="12" fill="#F8F9FA" text-anchor="middle">MYANMAR</text>
  <text x="500" y="160" font-family="Inter,Arial" font-size="42" font-weight="800" fill="#F8F9FA">Merry Christmas 2025</text>
  <text x="500" y="210" font-family="Inter,Arial" font-size="18" fill="#9CA3AF">Enterprise eSIM Management Platform - Serving 50M+ Users Across ASEAN</text>
  <rect x="500" y="240" width="200" height="44" rx="22" fill="#00FFFF" filter="url(#glow)"/>
  <text x="600" y="268" font-family="Inter,Arial" font-size="14" font-weight="700" fill="#1e2f3c" text-anchor="middle">Get Started</text>
  <g transform="translate(1050,60)">
    <rect width="180" height="280" rx="24" fill="#0f1a24" stroke="#2a3f4f" stroke-width="2"/>
    <rect x="8" y="8" width="164" height="264" rx="18" fill="#1e2f3c"/>
    <rect x="14" y="40" width="152" height="200" rx="12" fill="url(#glass)"/>
    <rect x="50" y="70" width="80" height="80" rx="6" fill="#F8F9FA"/>
    <rect x="58" y="78" width="64" height="64" fill="#1e2f3c"/>
    <g fill="#F8F9FA"><rect x="64" y="84" width="12" height="12"/><rect x="84" y="84" width="12" height="12"/><rect x="104" y="84" width="12" height="12"/><rect x="64" y="104" width="12" height="12"/><rect x="104" y="104" width="12" height="12"/><rect x="64" y="124" width="12" height="12"/><rect x="84" y="124" width="12" height="12"/><rect x="104" y="124" width="12" height="12"/></g>
    <text x="90" y="175" font-family="Inter,Arial" font-size="10" font-weight="600" fill="#F8F9FA" text-anchor="middle">Premium 5G</text>
    <rect x="50" y="190" width="80" height="18" rx="9" fill="rgba(0,255,255,0.15)"/>
    <text x="90" y="203" font-family="Inter,Arial" font-size="9" font-weight="600" fill="#00FFFF" text-anchor="middle">ACTIVE</text>
  </g>
  <g transform="translate(1300,100)">
    <text x="0" y="0" font-family="Inter,Arial" font-size="36" font-weight="800" fill="#00FFFF" filter="url(#glow)">5G</text>
    <text x="0" y="25" font-family="Inter,Arial" font-size="11" fill="#9CA3AF">VoLTE Ready</text>
    <text x="0" y="80" font-family="Inter,Arial" font-size="36" font-weight="800" fill="#F8F9FA">24/7</text>
    <text x="0" y="105" font-family="Inter,Arial" font-size="11" fill="#9CA3AF">Support</text>
  </g>
  <g transform="translate(1480,30)"><ellipse rx="15" ry="7" fill="#2d5a3d" transform="rotate(-30)"/><ellipse cx="12" cy="6" rx="15" ry="7" fill="#2d5a3d" transform="rotate(30)"/><circle cx="6" cy="3" r="4" fill="#c41e3a"/><circle cx="10" cy="8" r="3" fill="#c41e3a"/></g>
  <text x="792" y="380" font-family="Inter,Arial" font-size="10" fill="#6B7280" text-anchor="middle">esim.com.mm</text>
</svg>
