<?xml version="1.0" encoding="UTF-8"?>
<svg width="1500" height="500" viewBox="0 0 1500 500" xmlns="http://www.w3.org/2000/svg">
  <defs>
    <linearGradient id="bg" x1="0%" y1="0%" x2="100%" y2="100%">
      <stop offset="0%" style="stop-color:#1e2f3c"/><stop offset="100%" style="stop-color:#0f1a24"/>
    </linearGradient>
    <linearGradient id="glass" x1="0%" y1="0%" x2="0%" y2="100%">
      <stop offset="0%" style="stop-color:#F8F9FA;stop-opacity:0.1"/><stop offset="100%" style="stop-color:#F8F9FA;stop-opacity:0.03"/>
    </linearGradient>
    <filter id="glow"><feGaussianBlur stdDeviation="6"/><feMerge><feMergeNode/><feMergeNode in="SourceGraphic"/></feMerge></filter>
  </defs>
  <rect width="1500" height="500" fill="url(#bg)"/>
  <g opacity="0.4" fill="#F8F9FA">
    <circle cx="100" cy="60" r="3"/><circle cx="300" cy="100" r="2"/><circle cx="500" cy="50" r="4"/>
    <circle cx="700" cy="80" r="2"/><circle cx="1000" cy="60" r="3"/><circle cx="1200" cy="90" r="2"/>
    <circle cx="1400" cy="70" r="4"/><circle cx="150" cy="420" r="2"/><circle cx="1350" cy="440" r="3"/>
  </g>
  <rect x="50" y="60" width="500" height="380" rx="20" fill="url(#glass)" stroke="rgba(255,255,255,0.08)"/>
  <circle cx="300" cy="170" r="60" fill="#1e2f3c" stroke="#00FFFF" stroke-width="3" filter="url(#glow)"/>
  <text x="300" y="180" font-family="Inter,Arial" font-size="24" font-weight="700" fill="#00FFFF" text-anchor="middle">eSIM</text>
  <text x="300" y="200" font-family="Inter,Arial" font-size="10" fill="#F8F9FA" text-anchor="middle">MYANMAR</text>
  <text x="300" y="280" font-family="Inter,Arial" font-size="32" font-weight="800" fill="#F8F9FA" text-anchor="middle">Merry Christmas</text>
  <text x="300" y="320" font-family="Inter,Arial" font-size="24" font-weight="600" fill="#00FFFF" text-anchor="middle" filter="url(#glow)">2025</text>
  <text x="300" y="360" font-family="Inter,Arial" font-size="12" fill="#9CA3AF" text-anchor="middle">Enterprise eSIM Platform</text>
  <rect x="175" y="380" width="250" height="40" rx="20" fill="#00FFFF" filter="url(#glow)"/>
  <text x="300" y="406" font-family="Inter,Arial" font-size="14" font-weight="700" fill="#1e2f3c" text-anchor="middle">Get Started</text>
  <g transform="translate(650,50)">
    <rect width="220" height="400" rx="28" fill="#0f1a24" stroke="#2a3f4f" stroke-width="2"/>
    <rect x="8" y="8" width="204" height="384" rx="22" fill="#1e2f3c"/>
    <rect x="16" y="50" width="188" height="320" rx="14" fill="url(#glass)"/>
    <rect x="56" y="90" width="108" height="108" rx="8" fill="#F8F9FA"/>
    <rect x="68" y="102" width="84" height="84" fill="#1e2f3c"/>
    <g fill="#F8F9FA"><rect x="76" y="110" width="16" height="16"/><rect x="100" y="110" width="16" height="16"/><rect x="124" y="110" width="16" height="16"/><rect x="76" y="134" width="16" height="16"/><rect x="124" y="134" width="16" height="16"/><rect x="76" y="158" width="16" height="16"/><rect x="100" y="158" width="16" height="16"/><rect x="124" y="158" width="16" height="16"/></g>
    <text x="110" y="230" font-family="Inter,Arial" font-size="12" font-weight="600" fill="#F8F9FA" text-anchor="middle">Premium 5G</text>
    <rect x="60" y="250" width="100" height="22" rx="11" fill="rgba(0,255,255,0.15)"/>
    <text x="110" y="266" font-family="Inter,Arial" font-size="10" font-weight="600" fill="#00FFFF" text-anchor="middle">ACTIVE</text>
  </g>
  <g transform="translate(950,80)">
    <text x="0" y="0" font-family="Inter,Arial" font-size="48" font-weight="800" fill="#F8F9FA">50M+</text>
    <text x="0" y="35" font-family="Inter,Arial" font-size="14" fill="#9CA3AF">Users Across ASEAN</text>
    <text x="0" y="100" font-family="Inter,Arial" font-size="48" font-weight="800" fill="#00FFFF" filter="url(#glow)">5G</text>
    <text x="0" y="135" font-family="Inter,Arial" font-size="14" fill="#9CA3AF">VoLTE Ready</text>
    <text x="0" y="200" font-family="Inter,Arial" font-size="48" font-weight="800" fill="#F8F9FA">24/7</text>
    <text x="0" y="235" font-family="Inter,Arial" font-size="14" fill="#9CA3AF">Enterprise Support</text>
  </g>
  <g transform="translate(1380,40)"><ellipse rx="18" ry="8" fill="#2d5a3d" transform="rotate(-30)"/><ellipse cx="14" cy="7" rx="18" ry="8" fill="#2d5a3d" transform="rotate(30)"/><circle cx="7" cy="4" r="5" fill="#c41e3a"/><circle cx="12" cy="9" r="4" fill="#c41e3a"/></g>
  <text x="750" y="480" font-family="Inter,Arial" font-size="11" fill="#6B7280" text-anchor="middle">ESIM MYANMAR COMPANY LIMITED - esim.com.mm</text>
</svg>
