<?xml version="1.0" encoding="UTF-8"?>
<svg width="1280" height="720" viewBox="0 0 1280 720" xmlns="http://www.w3.org/2000/svg">
  <defs>
    <linearGradient id="bg" x1="0%" y1="0%" x2="100%" y2="100%">
      <stop offset="0%" style="stop-color:#1e2f3c"/><stop offset="100%" style="stop-color:#0f1a24"/>
    </linearGradient>
    <linearGradient id="glass" x1="0%" y1="0%" x2="0%" y2="100%">
      <stop offset="0%" style="stop-color:#F8F9FA;stop-opacity:0.12"/><stop offset="100%" style="stop-color:#F8F9FA;stop-opacity:0.04"/>
    </linearGradient>
    <filter id="glow"><feGaussianBlur stdDeviation="8"/><feMerge><feMergeNode/><feMergeNode in="SourceGraphic"/></feMerge></filter>
  </defs>
  <rect width="1280" height="720" fill="url(#bg)"/>
  <g opacity="0.5" fill="#F8F9FA">
    <circle cx="100" cy="80" r="4"/><circle cx="300" cy="120" r="3"/><circle cx="500" cy="60" r="5"/>
    <circle cx="800" cy="100" r="3"/><circle cx="1000" cy="70" r="4"/><circle cx="1180" cy="130" r="3"/>
    <circle cx="100" cy="620" r="3"/><circle cx="1180" cy="650" r="4"/>
  </g>
  <rect x="60" y="100" width="560" height="520" rx="28" fill="url(#glass)" stroke="rgba(255,255,255,0.1)"/>
  <circle cx="340" cy="250" r="90" fill="#1e2f3c" stroke="#00FFFF" stroke-width="4" filter="url(#glow)"/>
  <text x="340" y="265" font-family="Inter,Arial" font-size="36" font-weight="700" fill="#00FFFF" text-anchor="middle">eSIM</text>
  <text x="340" y="300" font-family="Inter,Arial" font-size="14" fill="#F8F9FA" text-anchor="middle">MYANMAR</text>
  <text x="340" y="400" font-family="Inter,Arial" font-size="48" font-weight="800" fill="#F8F9FA" text-anchor="middle">Merry Christmas</text>
  <text x="340" y="460" font-family="Inter,Arial" font-size="36" font-weight="600" fill="#00FFFF" text-anchor="middle" filter="url(#glow)">2025</text>
  <text x="340" y="520" font-family="Inter,Arial" font-size="16" fill="#9CA3AF" text-anchor="middle">Enterprise eSIM Management Platform</text>
  <rect x="190" y="550" width="300" height="50" rx="25" fill="#00FFFF" filter="url(#glow)"/>
  <text x="340" y="582" font-family="Inter,Arial" font-size="18" font-weight="700" fill="#1e2f3c" text-anchor="middle">Get Started Today</text>
  <g transform="translate(720,100)">
    <rect width="300" height="520" rx="36" fill="#0f1a24" stroke="#2a3f4f" stroke-width="2"/>
    <rect x="12" y="12" width="276" height="496" rx="28" fill="#1e2f3c"/>
    <rect x="24" y="60" width="252" height="420" rx="20" fill="url(#glass)"/>
    <rect x="80" y="120" width="140" height="140" rx="10" fill="#F8F9FA"/>
    <rect x="95" y="135" width="110" height="110" fill="#1e2f3c"/>
    <g fill="#F8F9FA"><rect x="105" y="145" width="22" height="22"/><rect x="137" y="145" width="22" height="22"/><rect x="169" y="145" width="22" height="22"/><rect x="105" y="177" width="22" height="22"/><rect x="169" y="177" width="22" height="22"/><rect x="105" y="209" width="22" height="22"/><rect x="137" y="209" width="22" height="22"/><rect x="169" y="209" width="22" height="22"/></g>
    <text x="150" y="300" font-family="Inter,Arial" font-size="16" font-weight="600" fill="#F8F9FA" text-anchor="middle">Premium 5G Plan</text>
    <text x="150" y="325" font-family="Inter,Arial" font-size="12" fill="#9CA3AF" text-anchor="middle">Unlimited Data + VoLTE</text>
    <rect x="95" y="350" width="110" height="28" rx="14" fill="rgba(0,255,255,0.15)"/>
    <text x="150" y="370" font-family="Inter,Arial" font-size="12" font-weight="600" fill="#00FFFF" text-anchor="middle">ACTIVE</text>
    <g transform="translate(60,400)">
      <rect width="180" height="60" rx="10" fill="rgba(255,255,255,0.05)"/>
      <circle cx="30" cy="30" r="16" fill="rgba(0,255,255,0.2)"/>
      <circle cx="90" cy="30" r="16" fill="rgba(255,255,255,0.1)"/>
      <circle cx="150" cy="30" r="16" fill="rgba(255,255,255,0.1)"/>
    </g>
  </g>
  <g transform="translate(1100,150)">
    <text x="0" y="0" font-family="Inter,Arial" font-size="48" font-weight="800" fill="#F8F9FA">50M+</text>
    <text x="0" y="30" font-family="Inter,Arial" font-size="14" fill="#9CA3AF">Users</text>
    <text x="0" y="100" font-family="Inter,Arial" font-size="48" font-weight="800" fill="#00FFFF" filter="url(#glow)">5G</text>
    <text x="0" y="130" font-family="Inter,Arial" font-size="14" fill="#9CA3AF">VoLTE</text>
  </g>
  <g transform="translate(1150,80)"><ellipse rx="22" ry="10" fill="#2d5a3d" transform="rotate(-30)"/><ellipse cx="18" cy="9" rx="22" ry="10" fill="#2d5a3d" transform="rotate(30)"/><circle cx="9" cy="5" r="7" fill="#c41e3a"/><circle cx="16" cy="11" r="5" fill="#c41e3a"/></g>
  <text x="640" y="690" font-family="Inter,Arial" font-size="12" fill="#6B7280" text-anchor="middle">ESIM MYANMAR COMPANY LIMITED - esim.com.mm</text>
</svg>
