<?xml version="1.0" encoding="UTF-8"?>
<svg width="1080" height="1920" viewBox="0 0 1080 1920" xmlns="http://www.w3.org/2000/svg">
  <defs>
    <linearGradient id="bg" x1="0%" y1="0%" x2="100%" y2="100%">
      <stop offset="0%" style="stop-color:#1e2f3c"/><stop offset="100%" style="stop-color:#0f1a24"/>
    </linearGradient>
    <linearGradient id="glass" x1="0%" y1="0%" x2="0%" y2="100%">
      <stop offset="0%" style="stop-color:#F8F9FA;stop-opacity:0.12"/><stop offset="100%" style="stop-color:#F8F9FA;stop-opacity:0.04"/>
    </linearGradient>
    <filter id="glow"><feGaussianBlur stdDeviation="12"/><feMerge><feMergeNode/><feMergeNode in="SourceGraphic"/></feMerge></filter>
  </defs>
  <rect width="1080" height="1920" fill="url(#bg)"/>
  <g opacity="0.5" fill="#F8F9FA">
    <circle cx="100" cy="150" r="4"/><circle cx="300" cy="200" r="3"/><circle cx="500" cy="100" r="5"/>
    <circle cx="700" cy="180" r="3"/><circle cx="900" cy="120" r="4"/><circle cx="980" cy="250" r="3"/>
    <circle cx="80" cy="1700" r="3"/><circle cx="200" cy="1800" r="4"/><circle cx="880" cy="1750" r="3"/><circle cx="1000" cy="1680" r="4"/>
    <circle cx="150" cy="800" r="3"/><circle cx="930" cy="900" r="4"/><circle cx="100" cy="1200" r="3"/><circle cx="980" cy="1300" r="4"/>
  </g>
  <rect x="60" y="300" width="960" height="1320" rx="40" fill="url(#glass)" stroke="rgba(255,255,255,0.1)"/>
  <circle cx="540" cy="520" r="120" fill="#1e2f3c" stroke="#00FFFF" stroke-width="5" filter="url(#glow)"/>
  <text x="540" y="540" font-family="Inter,Arial" font-size="48" font-weight="700" fill="#00FFFF" text-anchor="middle">eSIM</text>
  <text x="540" y="585" font-family="Inter,Arial" font-size="18" fill="#F8F9FA" text-anchor="middle">MYANMAR</text>
  <text x="540" y="760" font-family="Inter,Arial" font-size="72" font-weight="800" fill="#F8F9FA" text-anchor="middle">Merry</text>
  <text x="540" y="850" font-family="Inter,Arial" font-size="72" font-weight="800" fill="#F8F9FA" text-anchor="middle">Christmas</text>
  <text x="540" y="1000" font-family="Inter,Arial" font-size="96" font-weight="700" fill="#00FFFF" text-anchor="middle" filter="url(#glow)">2025</text>
  <text x="540" y="1120" font-family="Inter,Arial" font-size="22" fill="#9CA3AF" text-anchor="middle">Enterprise eSIM Management</text>
  <text x="540" y="1155" font-family="Inter,Arial" font-size="22" fill="#9CA3AF" text-anchor="middle">Platform for ASEAN</text>
  <g transform="translate(140,1220)">
    <rect width="800" height="300" rx="24" fill="rgba(255,255,255,0.05)" stroke="rgba(255,255,255,0.1)"/>
    <rect x="280" y="40" width="240" height="240" rx="16" fill="#F8F9FA"/>
    <rect x="300" y="60" width="200" height="200" fill="#1e2f3c"/>
    <g fill="#F8F9FA"><rect x="320" y="80" width="40" height="40"/><rect x="380" y="80" width="40" height="40"/><rect x="440" y="80" width="40" height="40"/><rect x="320" y="140" width="40" height="40"/><rect x="440" y="140" width="40" height="40"/><rect x="320" y="200" width="40" height="40"/><rect x="380" y="200" width="40" height="40"/><rect x="440" y="200" width="40" height="40"/></g>
  </g>
  <rect x="290" y="1560" width="500" height="70" rx="35" fill="#00FFFF" filter="url(#glow)"/>
  <text x="540" y="1605" font-family="Inter,Arial" font-size="24" font-weight="700" fill="#1e2f3c" text-anchor="middle">Get Started Today</text>
  <g transform="translate(920,200)"><ellipse rx="30" ry="14" fill="#2d5a3d" transform="rotate(-30)"/><ellipse cx="25" cy="12" rx="30" ry="14" fill="#2d5a3d" transform="rotate(30)"/><circle cx="12" cy="6" r="10" fill="#c41e3a"/><circle cx="22" cy="15" r="8" fill="#c41e3a"/></g>
  <text x="540" y="1850" font-family="Inter,Arial" font-size="18" fill="#6B7280" text-anchor="middle">esim.com.mm</text>
</svg>
