<?xml version="1.0" encoding="UTF-8"?>
<svg width="1080" height="1080" viewBox="0 0 1080 1080" xmlns="http://www.w3.org/2000/svg">
  <defs>
    <linearGradient id="bg" x1="0%" y1="0%" x2="100%" y2="100%">
      <stop offset="0%" style="stop-color:#1e2f3c"/><stop offset="100%" style="stop-color:#0f1a24"/>
    </linearGradient>
    <linearGradient id="glass" x1="0%" y1="0%" x2="0%" y2="100%">
      <stop offset="0%" style="stop-color:#F8F9FA;stop-opacity:0.12"/><stop offset="100%" style="stop-color:#F8F9FA;stop-opacity:0.04"/>
    </linearGradient>
    <filter id="glow"><feGaussianBlur stdDeviation="10"/><feMerge><feMergeNode/><feMergeNode in="SourceGraphic"/></feMerge></filter>
  </defs>
  <rect width="1080" height="1080" fill="url(#bg)"/>
  <g opacity="0.5" fill="#F8F9FA">
    <circle cx="100" cy="100" r="4"/><circle cx="300" cy="150" r="3"/><circle cx="500" cy="80" r="5"/>
    <circle cx="700" cy="120" r="3"/><circle cx="900" cy="90" r="4"/><circle cx="980" cy="200" r="3"/>
    <circle cx="80" cy="900" r="3"/><circle cx="200" cy="980" r="4"/><circle cx="880" cy="950" r="3"/><circle cx="1000" cy="880" r="4"/>
  </g>
  <rect x="90" y="180" width="900" height="720" rx="32" fill="url(#glass)" stroke="rgba(255,255,255,0.1)"/>
  <circle cx="540" cy="340" r="100" fill="#1e2f3c" stroke="#00FFFF" stroke-width="4" filter="url(#glow)"/>
  <text x="540" y="355" font-family="Inter,Arial" font-size="40" font-weight="700" fill="#00FFFF" text-anchor="middle">eSIM</text>
  <text x="540" y="390" font-family="Inter,Arial" font-size="16" fill="#F8F9FA" text-anchor="middle">MYANMAR</text>
  <text x="540" y="520" font-family="Inter,Arial" font-size="56" font-weight="800" fill="#F8F9FA" text-anchor="middle">Merry</text>
  <text x="540" y="590" font-family="Inter,Arial" font-size="56" font-weight="800" fill="#F8F9FA" text-anchor="middle">Christmas</text>
  <text x="540" y="680" font-family="Inter,Arial" font-size="72" font-weight="700" fill="#00FFFF" text-anchor="middle" filter="url(#glow)">2025</text>
  <text x="540" y="760" font-family="Inter,Arial" font-size="18" fill="#9CA3AF" text-anchor="middle">Enterprise eSIM Management Platform</text>
  <rect x="340" y="800" width="400" height="60" rx="30" fill="#00FFFF" filter="url(#glow)"/>
  <text x="540" y="840" font-family="Inter,Arial" font-size="20" font-weight="700" fill="#1e2f3c" text-anchor="middle">Get Started Today</text>
  <g transform="translate(920,120)"><ellipse rx="25" ry="12" fill="#2d5a3d" transform="rotate(-30)"/><ellipse cx="20" cy="10" rx="25" ry="12" fill="#2d5a3d" transform="rotate(30)"/><circle cx="10" cy="5" r="8" fill="#c41e3a"/><circle cx="18" cy="12" r="6" fill="#c41e3a"/></g>
  <g transform="translate(160,920)"><ellipse rx="20" ry="10" fill="#2d5a3d" transform="rotate(30)"/><ellipse cx="15" cy="-8" rx="20" ry="10" fill="#2d5a3d" transform="rotate(-30)"/><circle cx="8" cy="-4" r="6" fill="#c41e3a"/></g>
  <text x="540" y="1040" font-family="Inter,Arial" font-size="14" fill="#6B7280" text-anchor="middle">esim.com.mm</text>
</svg>
