<?xml version="1.0" encoding="UTF-8"?>
<svg width="1080" height="1920" viewBox="0 0 1080 1920" xmlns="http://www.w3.org/2000/svg">
  <defs>
    <linearGradient id="bg" x1="0%" y1="0%" x2="100%" y2="100%">
      <stop offset="0%" style="stop-color:#1e2f3c"/>
      <stop offset="100%" style="stop-color:#0f1a24"/>
    </linearGradient>
    <linearGradient id="glass" x1="0%" y1="0%" x2="0%" y2="100%">
      <stop offset="0%" style="stop-color:#F8F9FA;stop-opacity:0.15"/>
      <stop offset="100%" style="stop-color:#F8F9FA;stop-opacity:0.05"/>
    </linearGradient>
    <filter id="glow"><feGaussianBlur stdDeviation="10" result="blur"/><feMerge><feMergeNode in="blur"/><feMergeNode in="SourceGraphic"/></feMerge></filter>
  </defs>
  <rect width="1080" height="1920" fill="url(#bg)"/>
  <g opacity="0.5" fill="#F8F9FA">
    <circle cx="100" cy="150" r="4"/><circle cx="300" cy="200" r="3"/><circle cx="500" cy="100" r="5"/>
    <circle cx="700" cy="180" r="3"/><circle cx="900" cy="120" r="4"/><circle cx="980" cy="250" r="3"/>
    <circle cx="150" cy="1750" r="4"/><circle cx="400" cy="1800" r="3"/><circle cx="700" cy="1780" r="5"/>
    <circle cx="950" cy="1820" r="3"/>
  </g>
  <rect x="60" y="300" width="960" height="1320" rx="40" fill="url(#glass)" stroke="rgba(255,255,255,0.1)"/>
  <circle cx="540" cy="520" r="120" fill="#1e2f3c" stroke="#00FFFF" stroke-width="6" filter="url(#glow)"/>
  <text x="540" y="540" font-family="Inter,Arial" font-size="48" font-weight="700" fill="#00FFFF" text-anchor="middle">eSIM</text>
  <text x="540" y="585" font-family="Inter,Arial" font-size="18" fill="#F8F9FA" text-anchor="middle">MYANMAR</text>
  <text x="540" y="780" font-family="Inter,Arial" font-size="72" font-weight="800" fill="#F8F9FA" text-anchor="middle">Merry</text>
  <text x="540" y="870" font-family="Inter,Arial" font-size="72" font-weight="800" fill="#F8F9FA" text-anchor="middle">Christmas</text>
  <text x="540" y="980" font-family="Inter,Arial" font-size="64" font-weight="600" fill="#00FFFF" text-anchor="middle" filter="url(#glow)">2025</text>
  <text x="540" y="1100" font-family="Inter,Arial" font-size="28" fill="#9CA3AF" text-anchor="middle">Enterprise eSIM Platform</text>
  <text x="540" y="1150" font-family="Inter,Arial" font-size="22" fill="#6B7280" text-anchor="middle">50M+ Users Across ASEAN</text>
  <rect x="240" y="1250" width="600" height="80" rx="40" fill="#00FFFF" filter="url(#glow)"/>
  <text x="540" y="1305" font-family="Inter,Arial" font-size="28" font-weight="700" fill="#1e2f3c" text-anchor="middle">Get Started Today</text>
  <rect x="140" y="1400" width="800" height="160" rx="24" fill="rgba(255,255,255,0.05)" stroke="rgba(255,255,255,0.1)"/>
  <rect x="180" y="1440" width="100" height="100" rx="12" fill="#F8F9FA"/>
  <rect x="195" y="1455" width="70" height="70" fill="#1e2f3c"/>
  <text x="560" y="1480" font-family="Inter,Arial" font-size="24" font-weight="600" fill="#F8F9FA" text-anchor="middle">Scan QR to Download</text>
  <text x="560" y="1520" font-family="Inter,Arial" font-size="18" fill="#9CA3AF" text-anchor="middle">Available on iOS and Android</text>
  <text x="540" y="1850" font-family="Inter,Arial" font-size="20" fill="#6B7280" text-anchor="middle">esim.com.mm</text>
</svg>
